<?xml version="1.0" encoding="utf-8"?>
<!-- Generator: Adobe Illustrator 22.1.0, SVG Export Plug-In . SVG Version: 6.00 Build 0)  -->
<svg version="1.1" id="Layer_2" xmlns="http://www.w3.org/2000/svg" xmlns:xlink="http://www.w3.org/1999/xlink" x="0px" y="0px"
	 viewBox="0 0 1400 1000" style="enable-background:new 0 0 1400 1000;" xml:space="preserve">
<style type="text/css">
	.st0{fill:#FFFFFF;}
</style>
<g>
	<path class="st0" d="M1400,918.2h-53.7c-40.1,0-68.6-6.7-89.8-21.2c-14-9.6-25.3-22.5-35.8-41.3c-4.1,5.9-9.9,10.3-17.3,13
		c-29.6,11-77.9-9.4-98.1-53.2c-9.3-20.2-8.4-36,2.6-44.7c15.7-12.3,49.1-6.8,72.9,12.2c10.4,8.3,27.9,42.5,29.6,46.6
		c3.3,7.9,6.7,15.2,10.3,22.1c6.9-12.2,7.5-30,1.2-51.7c-5.8-19.9-12.8-35-20.2-46.3c-9.6,4.9-23.2,2.9-29.6,1.5
		c-14.8-3.2-31.1-11.3-32.9-19.3c-1.3-6.1,3.4-11.8,11.5-13.9c11.5-2.9,32.8,1.6,51.5,29c1.8-1.1,3.3-2.5,4.5-4
		c6.2-8.5,3.4-23.7-8.1-44.2c-39.5-70.1-121.8-33.4-146.2-20.5l-0.9,0.5c-4.2,2.2-11.2,5.9-13.7,11.9c-2.3,5.4-3.9,12.4-5.6,19.2
		c-2.3,9.5-4.6,19.4-8.7,25c-5.7,7.8-22.3,14.5-37.1,14.8c-2.4,0.1-5.1,0-7.8-0.5c0.4,0.8,0.9,1.6,1.5,2.4
		c8.3,11.8,40.1,13.5,66.8,3.5c11.2-4.2,19.5-9.8,24.7-16.4c-9.1-23.4-8.2-37.5-5-41.3c1-1.2,2.3-1.6,3.6-1.2
		c4.2,1.3,7.7,10.2,9.1,23.2c0.8,7-1.2,13.7-5.5,19.6c1.6,4,3.4,8.2,5.6,12.7c9.3,19.2,11,31.4,5.2,37.2c-8.3,8.4-30.2-0.3-42.5-6.2
		c-7.2-3.4-23.2-7.8-38.7-11.9c-11.1-3-22.6-6.1-31.1-8.9c-7-2.4-17.3-11.2-21.2-15.1c-7.8-7.9-28.7-25.8-53.7-20.9
		c-14,2.7-37.4,8.6-60.1,14.2c-27.7,6.9-53.9,13.4-63.4,14.5c-4.8,0.5-25.1,0.2-52.3-0.8c-10.5,16.7-24.2,23.9-40,20.7
		c-1.8-0.4-3.7-0.8-5.8-1.2c-17.8-3.9-51-11.1-113.9-9.7c-11.9,0.3-24.5,1.6-36.4,3.6c3.8,11.3,11.5,26,21,41.5
		c60,1.5,104.5-10.4,151.4-22.9c32.9-8.8,66.5-17.8,106.9-22.6c9.2-3.8,19-7.6,29.5-11.6c49.7-18.9,91.6-16.6,114.9,6.2
		c2.5,2.4,4.7,5.1,6.7,7.8c70.1,10.4,100.1,31.3,112.9,48.1c11.2,14.8,11.6,28.9,9.9,38.1c-2.6,14-23.9,34.8-63.3,37.3
		c-35.3,2.2-82.2,1.6-129.3-1.5c-33.2,8.7-77.4,15.4-131.1,19.9c-92.7,7.8-183.3,6.4-184.2,6.4h-540v-2h540c0.9,0,91.4,1.4,184-6.4
		c50.6-4.3,92.4-10.4,124.7-18.3c-12.9-0.9-25.7-2-38.4-3.3c-65.6-6.6-111.7-16.7-126.5-27.6c-9.9-7.4-14.4-15.3-13.2-23.7
		c2.6-19,32.7-39.9,96.4-66.6c-37.1,5-68.4,13.4-99.3,21.6c-46.7,12.5-91,24.3-150.7,23c20.9,33.7,49.7,70.6,64.1,83.4
		c1.8,1.6,2.5,3.2,2.2,4.7c-0.5,2.1-2.9,3.7-7.5,5c-29,8.1-144.7,0.4-166.1-21.5c-5.4-5.6-8.4-10.3-9.2-14.5
		c-18-6.2-39.4-30.1-54.1-49.1c-19.4-25-35.9-52.2-44.9-69.3c-3.5-6.7-4.6-12-4.4-16.1c-7,0.4-15,0.4-23.1,0.1
		c-3.5,1.5-6.9,2.6-10.1,3.2c-8.4,1.7-15.8,2.4-22.3,2.4c-36,0-43.4-22.5-46.8-33c-0.2-0.8-0.5-1.4-0.7-2c-2-5.7-2.7-14.5-1.8-24.6
		c-9-21.6-14.8-47.7-20.3-74.9c-4.4-22.2-1.9-34.5,1.5-51.5c2.7-13.4,6.1-30.1,6.7-57.1c1-43.3,72.3-53.7,114.7-56
		c25.1-1.4,66.1,8.1,91,16.6c-0.5-2.2-0.9-4.7-1.2-7.4c-14-4.4-29.4-6.9-38.3-8.4c-2-0.3-3.7-0.6-5-0.8c-3.8-0.7-6.2-2.3-7.3-4.9
		c-2.9-7.1,6.1-20,13.3-30.4c9.8-14.1,23.9-62.2,25.2-78.5c0.2-2.8,0.4-5.5,0.6-8c-2.2-2.6-4.2-5.6-6-8.4c-0.9-1.4-1.8-2.7-2.7-4
		c-9.1-12.8-8-31.3,2.5-40.3c2-1.7,4.2-2,6.4-0.9c8.8,4.6,15.7,32.3,14.6,42.4c-0.3,3-1.8,4-3,4.2c-2.6,0.6-6-1.4-9.2-4.4
		c-0.1,3.3-0.3,6.8-0.5,10.7c4,4.7,8.5,7.7,13.8,5.1c5.5-2.7,9.7-10.3,6.6-21.4c-1.4-5.1-2-10.4-2-15.6c-1.1-1.1-2.2-2.5-3.4-4.2
		c-2.1-3.3-2.9-6.8-3.5-9.7c-0.3-1.2-0.5-2.3-0.8-3.1c-4-11.8-10.6-12.7-16.5-11.9c-1.4,0.2-2.8-0.3-4.1-1.3
		c-2.1-1.8-3.8-5.2-3.9-8.3c-1.8-30.5,3-50.1,14.2-58.2c6.4-4.6,14.2-6.2,22.2-4.7c-0.2-2.5,0.1-4.8,0.8-6.8
		c2.3-6.6,10.8-12.7,23.5-16.8c22.7-7.3,57.4-7.8,80,8.3c41.2,29.3,57.5,45.8,56.2,57c-0.5,4.2-3.7,7.5-9.4,9.8
		c-3.1,1.2-7,2.4-11.6,3.4c2.7,4.1,4,8.6,3.9,13.4c-0.2,5.9-0.3,11.4-0.4,16.1c-0.7,28.4-1,40.2-12.4,47.3c-1.9,1.2-2.9,2.1-3,3
		c-0.2,0.9,0.5,2.1,1.5,3.6c3.2,5.1,9.3,14.6-3.7,39.7c-5.6,10.8-10.1,20.5-14.1,29.1c-5.9,12.7-10.5,22.6-15.4,29.3
		c12,3.3,36.2,7,59.6,10.5c21.5,3.3,43.8,6.6,55.9,9.7c18.8,4.7,47.7,51.2,70.9,88.5c10.4,16.7,19.3,31.1,25.7,39.1
		c18.8,23.6,6.3,69.5-2.8,102.9c-1.1,3.9-2.1,7.7-3,11.2c-2.4,9.3-3.9,16.1-5,21.1c-2.5,11.4-3.1,14.1-8.3,17c4,4.3,8,7.9,12.2,11
		c0.6-1.8,1.2-3.7,1.8-5.6c9.8-32.6,59.8-233.9,61.3-239.8c0-1.3,0.4-10.3,8.8-19c10.4-10.7,28.2-16.3,52.8-16.6
		c60.1-0.7,189.6,0,193.3,0c0.6-0.1,3.1-0.2,5.4,2.2c4.8,5.2,4.7,18.4-0.4,38.4c-7.5,29.6-23.3,89.8-32,123
		c-3.6,13.8-8.3,26.5-10.9,31.3c-2.6,4.8-4.3,9-5.1,12.4c1.2-1.2,2.4-2.5,3.5-3.7c6.1-6.6,11.4-12.3,17-12.3c0.2,0,0.3,0,0.5,0
		c3.6,0.2,5.8,2.9,5.7,7c-0.1,8-8.4,19.8-21.1,20.3c-3.4,0.1-5.9-0.9-7.2-3c-0.5-0.9-0.9-1.9-1-3.1c-4.2,4-8.9,7.5-14.2,9.4
		c-13.9,4.9-21.7,11.4-21.3,14.9c0,0.2,0.1,0.5,0.2,0.7c2.1-1.9,4.7-3.5,7.4-4.5l1.9-0.7c20.3-7.3,44.5-15.1,52.1-10.8
		c1.3,0.8,2.1,1.8,2.4,3.2c0.3,1.9-0.3,3.7-1.8,5.4c-7.8,8.7-37.7,13.6-53.3,12.4c-4.4-0.3-7-1.2-8.6-2.3c-2.6,2.8-4.2,6.2-4.2,9.2
		c0,3.5,2.2,6.1,6.3,7.5c1,0.3,2.1,0.7,3.4,0.9c3.2-4.2,8.7-7.5,13.6-9.3l1.7-0.6c9.4-3.4,29.1-10.5,35.9-5.6
		c1.7,1.2,2.5,3.1,2.4,5.5c-0.1,2.6-1.6,4.9-4.5,6.9c-9.8,6.6-34.6,7.8-48.2,5.3c-0.6,1-1.1,2-1.4,3c-0.7,2.5-0.1,4.9,1.8,7.2
		c1.2,1.4,4.1,2.3,7.9,2.8c9.1-9,24.1-13.4,35.7-9.8c3.6,1.1,5.4,2.4,5.4,4c0.1,1.5-1.5,2.9-4.6,4.1c-7.5,2.9-24.4,5-35.7,3.7
		c-0.9,0.9-1.7,1.9-2.4,2.9c-4.3,5.8-5.2,12.2-2.7,18.3c3,0.6,6.1,0.7,8.8,0.7c14-0.3,30.2-6.7,35.5-14c3.9-5.3,6.2-15,8.4-24.3
		c1.6-6.8,3.3-13.9,5.7-19.5c2.8-6.7,10.2-10.6,14.6-12.9l0.9-0.5c24.7-13.1,108.5-50.4,148.8,21.3c12.1,21.5,14.8,37.1,7.9,46.3
		c-1.4,1.9-3,3.4-4.9,4.5c7.5,11.4,14.6,26.7,20.4,46.7c6.7,23,5.8,41.7-1.9,54.4c22.3,40.7,53.6,62.4,124.3,62.4h53.7V918.2z
		 M433.9,872.5c0.9,3.5,3.7,7.6,8.4,12.5c8.9,9.1,38.3,17.1,78.7,21.4c35.4,3.7,71.3,3.5,85.4-0.4c4.9-1.4,5.9-2.8,6.1-3.5
		c0.2-0.9-0.7-2-1.5-2.7c-15-13.4-44.2-50.8-65.2-85c-2.1-0.1-4.1-0.1-6.2-0.2c-8.7-0.4-16.7-0.9-23.9-1.5
		c-4.7,4.7-11,9.7-19.4,14.8c-7.5,4.5-14.4,8.4-20.9,11.8c-10,17.9-20.8,33.6-35.7,33.6C437.7,873.2,435.9,873,433.9,872.5z
		 M892.6,890.1c43.9,2.7,88.2,3.3,123,1.1c37.9-2.4,59.1-22.7,61.5-35.7c1.6-8.8,1.3-22.4-9.5-36.5c-12.5-16.4-41.7-36.8-109.8-47.1
		c12.4,19.4,13.5,46.5,2.7,76.5C954.5,865.2,931.6,879.2,892.6,890.1z M805.8,769.2c-66.8,27.4-99.5,49.2-102,67.8
		c-1.1,7.7,3,14.9,12.4,21.9c19.3,14.3,93.4,25.8,170,30.9c41.8-11,66.4-25.1,72.4-42c10.8-30.1,9.5-57.2-3.5-76.2
		c-9.3-1.4-19.3-2.5-30.1-3.5C878,763.9,839.5,765.1,805.8,769.2z M433.6,870.3c16.2,4.7,27.8-10.4,38.4-29c-2.6,1.4-5.2,2.7-7.7,4
		c-17.7,9.2-29.4,15.3-30.7,23C433.6,869,433.6,869.7,433.6,870.3z M330.4,737.2c-0.3,4.3,1.1,9.5,4.1,15.3
		c21.4,40.9,66.7,105.9,97,117.1c0-0.5,0.1-1.1,0.1-1.6c1.4-8.7,13.5-15,31.7-24.5c3.3-1.7,6.8-3.5,10.4-5.4c1.9-3.4,3.8-7,5.7-10.5
		c3.2-6.1,6.6-12.3,10-18c-16.6-3.2-25-7.7-24.9-13.6c0.1-10.3,27.7-20.9,58.9-26.4c-2.1-7-2.6-12.6-1-16.2c0.1-0.2,0.2-0.3,0.2-0.5
		c-4.9-2.7-8.6-6.5-9.4-11.8c-0.4-2.5,0.3-4.9,2.2-7c12.7-14.7,75.9-16.2,122.4-16c4.8,0,8.2,0,9-0.1c3.1-0.3,10.3-1.1,13.7-7.6
		c4.3-8.2,1-22.4-9.8-42.3c-11.1-20.5-16.5-46.6-18.7-73.1c-9.1-20.4-12.7-37.1-13.9-49.1c-2.2-20.6,1.6-35.6,6.3-41.4
		c2.4-3,4.5-2.7,5.5-2.4c3.2,1.2,4.6,7,4,16.2c-1.3,22.3-2.2,49.5,0,76.2c4.4,9.8,10.1,20.2,17.2,31.2c8.7,13.4,16.2,25.2,22.9,35.6
		c19.4,30.4,31.3,49.1,42.6,61.7c4.8-2.5,5.2-4.6,7.7-15.9c1.1-5,2.6-11.8,5-21.2c0.9-3.5,1.9-7.3,3-11.3c9-33,21.3-78.3,3.2-101.1
		c-6.4-8.1-15.4-22.6-25.8-39.3c-23-37-51.6-83.2-69.6-87.7c-12-3-34.2-6.4-55.7-9.6c-24-3.6-48.7-7.4-60.6-10.8
		c-3.8,4.7-7.8,7.3-12.6,7.8c-15.2,1.3-30-2.5-37.9-6.8c-0.2-0.1-6.6-3.8-15.2-9.6c-2.9,1.5-5.1,2.2-6.9,2.8
		c-4.4,1.4-5.3,1.7-5.7,13.4c-0.2,4.9,0.1,9.9,0.5,15.2c0.4,6.5,0.8,13,0.3,19.3c0,0.1,0.1,0.1,0.1,0.2c2.8,3.9,3.8,8.2,3.1,12.8
		c-1.2,7.1-8.6,16.7-19.7,27.1c1.6,5.9,7.8,11,14.2,16.3l1.1,0.9c11.3,9.4,23.6,10.4,27.9,5.4c1.5-1.7,1.3-6.4-0.4-11.6
		c-10.3,1.6-16.7-3.5-18.7-5.5c-4-3.9-5.7-9-4.2-12.2c0.6-1.2,2.2-3.2,6.2-2.7c8.6,1,14.9,9.9,18,17.8c0,0.1,0.1,0.2,0.1,0.2
		c2.4-0.5,5.1-1.5,8-3c15.3-7.8,20.6-22.7,24.9-36.3c-2.6-0.3-4.4-1.3-5.3-2.7c-1.5-2.2-0.4-5.1,2.9-7.6c2.1-1.6,4.2-2,6.1-1
		c1.9-5.1,4-9.6,7.1-12.9c-0.6-3.6,0.2-8.4,1.7-12.2c1-2.6,3.3-7.1,6.9-7.4c4.2-0.4,10,6,12.3,13.8c1.4,4.9,3.3,17.1-10.4,24.3
		c-4.7,2.5-8.9,4.1-12.6,5c0.5,6.7-1.6,15.4-7.7,23.6c-5,6.6-10.8,13.8-16.5,20.7c-9.6,11.8-19.6,24-25.4,33.5
		c-1,1.6-94.1,149.7-156.6,180.8c6.8,0.2,13.5,0.1,19.4-0.3c0.6-3.3,2.1-5.8,3.7-7.6c6.3-6.9,18.9-7.8,24.7-5.4c3,1.2,3.4,3,3.4,3.9
		c-0.1,2.9-4.3,5.7-12.5,8.2C344.1,735.8,337.9,736.7,330.4,737.2z M1130.7,766.1c-8.5,0-16.1,2-21.4,6.2c-10.2,8-10.9,23-2.1,42.3
		c9.1,19.8,24.9,36.2,44.4,46.1c17.9,9.1,37,11.4,51.2,6.1c7.3-2.7,12.9-7.2,16.9-13.1c-3.7-6.9-7.4-14.7-11-23.3
		c-2.3-5.6-19.4-38.2-29-45.9C1164.8,772.6,1146.2,766.1,1130.7,766.1z M491.6,810.1c-3.6,5.8-7,12.2-10.3,18.5
		c-1.4,2.6-2.8,5.2-4.2,7.8c5.7-3.1,11.7-6.4,18.1-10.3c7.6-4.6,13.4-9.1,17.8-13.3C504.8,812.1,497.7,811.2,491.6,810.1z
		 M517.4,811.2c6.5,0.5,13.9,1,22.2,1.4c1.7,0.1,3.3,0.1,4.9,0.2c-9.2-15.3-16.7-29.8-20.4-41.1c-31,5.6-57.4,15.9-57.5,24.5
		c0,2.6,3,7.7,24,11.7c3.1-5,6.3-9.5,9.6-13.2c8.4-9.2,16.1-10.9,20.6-9.5c3.1,1,5,3.5,5.4,6.9C526.8,796.9,524.4,803.6,517.4,811.2
		z M492.7,808.2c5.9,1,13.2,2,22.1,2.8c7.4-7.7,9.9-14.3,9.4-18.7c-0.3-2.6-1.7-4.5-4.1-5.3c-3.8-1.2-10.7,0.4-18.5,8.9
		C498.6,799.4,495.6,803.6,492.7,808.2z M906.5,727.1c21.9,0,39.4,15.2,46.5,22.3c3.8,3.8,13.7,12.4,20.4,14.6
		c8.4,2.8,19.9,5.9,31,8.9c16.3,4.4,31.7,8.5,39,12.1c9.5,4.6,32.5,14.4,40.2,6.6c5-5,3.2-16.8-5.6-34.9c-2-4.1-3.7-8.1-5.2-11.8
		c-5.4,6.4-13.8,12-24.8,16.1c-24.7,9.3-59.6,9.5-69.1-4.2c-0.9-1.3-1.7-2.7-2.3-4c-5.1-1.1-10.1-3.4-13.6-7.9
		c-7.2-9-37.1-33-65-26.3c-5.4,1.3-13.6,3.6-23.2,6.3c-41.2,11.7-110,31.2-133.5,19.6c-3.6-1.8-6.9-3.7-10-5.8
		c-2.4,6.5-5,12.2-7.9,17.2c26.6,1,46.2,1.2,50.9,0.7c9.4-1.1,35.5-7.6,63.1-14.4c22.7-5.6,46.1-11.5,60.2-14.2
		C900.5,727.4,903.6,727.1,906.5,727.1z M577.4,765.5c53.5,0,82.9,6.4,99.3,9.9c2.1,0.5,4.1,0.9,5.8,1.2c14.6,3,27.3-3.6,37.3-18.9
		c-66.7-2.5-171.9-9-191.2-17.2c-0.9-0.4-3.3-1.4-3-3.2c0.4-2.1,3.9-4.5,40.4-6.7c22.8-1.3,52.4-2.2,78.6-3c34.2-1,66.4-1.9,70-3.6
		c0.1,0,0.1-0.1,0.2-0.1c-11.2-12.7-23.1-31.3-42.4-61.5c-6.6-10.4-14.2-22.2-22.9-35.6c-6-9.3-10.9-18.1-14.9-26.4
		c2.5,24.3,7.8,47.9,18,66.7c11.1,20.5,14.4,35.3,9.8,44.2c-3.9,7.4-12.1,8.3-15.2,8.6c-0.9,0.1-4.1,0.1-9.3,0.1
		c-26.5-0.1-107.3-0.4-120.8,15.3c-1.5,1.7-2,3.5-1.7,5.4c0.7,4.8,4.3,8.1,8.6,10.4c1.9-2.1,5-3,9.2-2.6c27.1,2.7,27.1,5.7,27.1,6.8
		c0,0.6,0,2.5-7.6,3c-7.1,0.5-19.2-0.5-28-4.6c-0.1,0.1-0.1,0.3-0.2,0.4c-1.5,3.3-1,8.6,1,15.1c12.3-2.1,25.1-3.5,37-3.7
		C567.6,765.6,572.6,765.5,577.4,765.5z M868.7,763.5c17.4,0,36.1,0.8,56.4,2.6c10.1,0.9,19.5,2,28.3,3.2c-1.6-2.1-3.4-4.1-5.3-6
		c-22.7-22.3-63.8-24.4-112.7-5.8c-8,3-15.6,6-22.8,8.9C829.9,764.6,848.5,763.5,868.7,763.5z M525.8,752.2c2.1,1,4.4,1.7,6.5,2.3
		c11.6,3.1,23.7,2.3,25.7,1c-0.8-0.6-5-2.8-25.1-4.8C529.7,750.3,527.4,750.8,525.8,752.2z M527.6,737.7c0.1,0.2,0.6,0.5,1.8,1
		c11.2,4.7,57,9.8,125.8,13.9c23.5,1.4,46.4,2.5,65.8,3.2c3.2-5.2,6-11.3,8.5-18.3c-4.7-3.4-9-7.3-13.4-12c-0.2,0.1-0.5,0.2-0.7,0.3
		c-3.8,1.8-29.3,2.6-70.8,3.8c-25.7,0.8-54.9,1.6-77.5,2.9C534.1,734.5,528.4,736.8,527.6,737.7z M1157.5,723.3
		c-2.3,0-4.3,0.3-6.1,0.7c-7,1.8-11.1,6.5-10.1,11.5c1.3,6.3,15.7,14.4,31.3,17.8c11.5,2.5,21.4,2,28-1.3
		C1185.6,730,1168.9,723.3,1157.5,723.3z M907.8,715.5c25.5,0,50.1,20.1,56.6,28.2c2.9,3.7,6.9,5.7,11.2,6.9c-2.1-6.4-1-12.9,3.4-19
		c0.5-0.7,1.1-1.4,1.6-2.1c-3.6-0.6-6.4-1.7-7.8-3.2c-2.3-2.8-3.1-5.8-2.3-9c0.3-1,0.7-2,1.2-2.9c-1-0.2-2-0.5-2.8-0.8
		c-4.9-1.7-7.6-5-7.6-9.4c0-3.5,1.8-7.4,4.8-10.6c-0.4-0.6-0.7-1.3-0.7-1.9c-0.7-5.2,8.6-12.2,22.6-17.1c5.5-1.9,10.4-5.9,14.9-10.3
		c0.4-4,2.3-9.3,5.8-15.8c2.6-4.8,7.3-17.7,10.7-30.9c8.7-33.2,24.4-93.4,32-123c6.5-25.5,3.3-33.8,0.9-36.5
		c-1.7-1.9-3.7-1.6-3.7-1.6c-0.1,0-0.2,0-0.2,0c-1.3,0-132.7-0.7-193.3,0c-24.1,0.3-41.4,5.6-51.4,16c-8.4,8.6-8.3,17.6-8.3,17.7
		c0,0.1,0,0.2,0,0.3c-0.5,2.1-51.5,207.1-61.3,240c-0.6,2.1-1.3,4.2-2,6.2c3.2,2.2,6.5,4.1,10.2,5.9c22.8,11.3,91.2-8.1,132.1-19.7
		c9.6-2.7,17.8-5.1,23.2-6.3C900.9,715.9,904.4,715.5,907.8,715.5z M225.4,687.6c-0.4,8.4,0.3,15.4,1.8,19.7
		c0.2,0.6,0.5,1.3,0.7,2.1c3.9,11.9,13.1,39.8,66.8,29.3c1.8-0.3,3.6-0.8,5.6-1.5c-17.5-1.1-34.7-4-43.2-9.3
		C243.3,719.1,233.2,705,225.4,687.6z M1069.7,702.2c-0.3,0-0.7,0.1-1.1,0.6c-2.5,2.9-3.7,15.5,4.9,38.1c3.5-5.3,5.1-11.1,4.4-17.1
		c-1.7-15.7-5.8-20.9-7.8-21.5C1069.9,702.2,1069.8,702.2,1069.7,702.2z M225.7,683.3c7.9,18.7,18.1,33.8,32.5,42.9
		c9,5.6,28,8.5,46.5,9.3c23.3-10.1,55-40,92.7-87.6c33.4-42.1,61.5-85.6,66.7-94.1c5.9-9.7,15.9-21.9,25.6-33.8
		c5.7-6.9,11.5-14.1,16.5-20.6c5.7-7.5,7.7-15.8,7.4-21.9c-1.7,0.3-3.3,0.5-4.7,0.5c-4.5,14.1-9.8,29.6-26.1,37.9
		c-3,1.5-5.7,2.5-8.3,3.1c1.9,6,1.9,11.1-0.1,13.3c-5,5.7-18.1,5.3-30.7-5.2l-1.1-0.9c-6.4-5.3-12.5-10.3-14.6-16.4
		c-20.2,18.6-51.7,39.8-81,54.9c-3.9,2-8.3,1.4-13.2-1.9c-1.8,7.4-6,12.4-12.5,15c-4,1.5-7.7,3.1-11.4,4.6c-6.5,2.7-12.6,5.3-18,6.8
		c-27.6,7.7-43.5,28.9-52,45.3C231.3,651.2,227,669,225.7,683.3z M349.7,723.2c-5.5,0-12.1,1.7-15.9,5.9c-1.6,1.7-2.6,3.8-3.1,6.1
		c7.1-0.5,13-1.4,16.6-2.5c10.4-3.3,11-5.9,11.1-6.4c0-1-1.5-1.7-2.1-2C354.6,723.6,352.3,723.2,349.7,723.2z M985,728.1
		c10.6,0.8,25.8-1,33.1-3.8c2.8-1.1,3.3-1.9,3.3-2.2c0,0-0.1-1-4-2.2C1007.2,716.8,993.6,720.5,985,728.1z M975.3,713.1
		c13.3,2.2,36.7,1,45.7-5.1c2.3-1.6,3.5-3.4,3.6-5.3c0.1-1.7-0.5-3-1.6-3.8c-5.9-4.3-25.6,2.8-34,5.9l-1.7,0.6
		C983,706.8,978.3,709.7,975.3,713.1z M969.1,693.6c1.5,0.9,4,1.5,7.3,1.7c15.3,1.1,44.5-3.7,51.6-11.8c1.1-1.3,1.6-2.5,1.3-3.7
		c-0.2-0.8-0.6-1.4-1.4-1.9c-7.7-4.4-39.8,7.1-50.4,11l-1.9,0.7C973.3,690.5,971,691.9,969.1,693.6z M331.5,445.9
		c-1.8,0-3.5,0-5.2,0.1c-41.7,2.3-111.9,12.3-112.8,54c-0.6,27.1-4,43.9-6.8,57.4c-3.4,16.8-5.9,28.9-1.5,50.7
		c5.1,25.6,10.6,50.3,18.7,71c1.8-14.1,6.3-30.5,14.1-45.5c8.7-16.8,25-38.4,53.3-46.3c5.3-1.5,11-3.9,17.7-6.7
		c3.6-1.5,7.4-3.1,11.4-4.7c6.1-2.4,10-7.2,11.5-14.4c-17.4-13.9-36.3-59.6-35.1-71.1c0.2-1.6,0.7-2.7,1.7-3.1
		c2-0.8,4.4-0.1,7.3,2.1c11.7,9.1,31.9,46.6,28.4,70.5c0,0.2-0.1,0.5-0.1,0.7c0.2,0.2,0.5,0.3,0.7,0.5c4.2,2.8,7.9,3.4,11.1,1.7
		c29.1-15.1,61.2-36.7,81.3-55.4c-0.1-0.6-0.2-1.1-0.2-1.7c-0.2-4.8,2.2-9.7,7.4-14.9c6.3-6.3,8.7-13.9,9.4-22.2
		c-5.1-6.4-15-11.3-25.9-14.9c0.3,2.7,0.8,5.2,1.3,7.5c10.3,3.6,17.5,7,19,9.3c2.2,3.2,2.3,6.3,0.4,8c-2.4,2-8,1.4-16.6-6.7
		c-1.9-1.8-3.4-4.9-4.4-8.9C395.3,455.2,357.5,445.9,331.5,445.9z M1004.8,665.4c-0.1,1.7,0.2,3,0.8,4c0.9,1.5,2.7,2.1,5.4,2
		c11.6-0.4,19.1-11.1,19.2-18.3c0-1.8-0.4-4.8-3.9-5c-4.8-0.3-10,5.2-16,11.6C1008.5,661.5,1006.7,663.5,1004.8,665.4z M628.7,504
		c-1.1,0-2.2,1.2-2.7,1.8c-6.2,7.6-12.9,38.5,5.6,83.1c-1.7-25-0.8-49.9,0.4-70.7c0.6-9.5-1.1-13.5-2.8-14.2
		C629.1,504,628.9,504,628.7,504z M300.3,489.1c-0.3,0-0.6,0.1-0.9,0.2c-0.1,0.1-0.4,0.4-0.5,1.4c-1.1,11,16.7,54.3,33.5,68.6
		c3-23.3-16.4-59.4-27.7-68.2C303.4,490.1,301.7,489.1,300.3,489.1z M454.6,500.9c-1.3,0-2.6,0.3-3.2,1.6c-1,2,0,6.2,3.8,9.9
		c1.8,1.8,7.5,6.3,16.7,5c-2.7-7-8.6-15.5-16.3-16.4C455.3,501,454.9,500.9,454.6,500.9z M445.8,471.4c-1,7.7-3.7,14.9-9.8,21
		c-4.8,4.8-7,9.2-6.8,13.4c0,0,0,0.1,0,0.1c10.3-9.7,17-18.6,18.1-25C447.9,477.5,447.4,474.4,445.8,471.4z M420.1,463.7
		c0.9,3,2.1,5.3,3.6,6.7c8.2,7.7,12.7,7.7,13.9,6.6c1.1-0.9,0.8-3.1-0.8-5.3C435.6,470,429.4,467,420.1,463.7z M511.4,470
		c-0.7,1.9-1.3,3.9-1.9,5.9c1.1,0,2.4-0.2,3.8-0.5C513,473.2,512.3,471.4,511.4,470z M508.3,468c-0.8,0-1.7,0.4-2.7,1.1
		c-2.3,1.8-3.2,3.7-2.4,5c0.6,0.9,2,1.6,4.2,1.8c0,0,0,0,0-0.1c0.8-2.5,1.6-5,2.4-7.3C509.3,468.2,508.8,468,508.3,468z
		 M512.2,467.8c1.5,1.6,2.6,4.1,3.1,7.2c3.4-0.9,7.4-2.4,11.9-4.8c12.4-6.5,10.7-17.5,9.4-22c-2.1-7.1-7.3-12.6-10.2-12.3
		c-1.8,0.2-3.8,2.5-5.2,6.1c-1.3,3.3-1.9,6.9-1.8,9.7c4.6-4.1,8.2-5.7,10.4-4.6c1.2,0.6,1.7,1.8,1.6,3.4c-0.3,2.9-3,6.7-7.5,8
		c-2.4,0.7-3.9-0.3-4.7-1.1c-0.4-0.4-0.7-1-1-1.6C515.7,459.1,513.9,463.2,512.2,467.8z M417.9,451.7c10.7,3.5,20.6,8.1,26.3,14.2
		c0.3-5.5-0.1-11.3-0.4-16.9c-0.3-5.1-0.7-10.4-0.5-15.4c0.4-12.6,1.8-13.6,7.2-15.2c1.5-0.5,3.4-1,5.6-2.2
		c-11.8-8.3-27-20.4-36-33.4C418.3,402.1,416,432,417.9,451.7z M519.8,454.2c0.2,0.8,0.5,1.5,0.9,1.9c0.4,0.4,1.1,1,2.7,0.6
		c3.8-1.1,5.9-4.3,6-6.2c0-0.4,0-1.2-0.5-1.4c-1-0.5-3.9,0.4-8.6,4.7C520.2,453.9,520,454.1,519.8,454.2z M406.5,324.3
		c-0.1,2-0.3,4-0.5,6.1c-1.3,16.9-15.3,64.9-25.5,79.5c-6.6,9.4-15.6,22.3-13.1,28.5c0.8,1.9,2.7,3.1,5.8,3.7c1.3,0.2,3,0.5,5,0.8
		c8.8,1.4,23.8,3.9,37.8,8.2c-2-20.8,0.6-51.4,2.5-70.9c-3.8-6.2-6-12.5-5.7-18.6c0.3-5.3,1.3-17.9,4.8-19.6c0.7-0.3,1.4-0.3,2,0.2
		c2.6,1.8,3.5,10.5,2.5,22.3c-0.1,1.5-0.4,3.8-0.7,6.7c-0.2,2.4-0.5,5.2-0.9,8.5c8.5,13.4,24.6,26.6,37.6,35.6
		c1.1-0.7,2.4-1.4,3.7-2.4c19.3-13.9,32.3-5.5,44.9,2.6c4.7,3,9.6,6.2,14.7,8c0.5,0.2,1.1,0.4,1.6,0.5c4.9-6.4,9.6-16.5,15.6-29.5
		c4-8.6,8.6-18.4,14.2-29.2c12.5-24.1,7-32.6,3.8-37.7c-1.2-1.9-2.2-3.4-1.8-5.1c0.3-1.4,1.5-2.7,3.9-4.2
		c10.6-6.5,10.8-17.2,11.5-45.7c0.1-4.8,0.2-10.2,0.4-16.2c0.2-5-1.4-9.2-4-12.8c-30.7,6.4-85.6,7.2-93.9-10.7
		c-1.2-2.5-0.8-4.9,1.1-6.9c8.4-8.7,47.6-9.3,74.7,2.2c8.6,3.6,14.9,8.1,19,13.2c4.8-1,8.9-2.2,12.1-3.5c5.1-2,7.7-4.7,8.2-8.2
		c1.5-12.8-28.8-36.2-55.4-55.1c-21.1-15-55.3-15.4-78.3-8c-12,3.9-20.1,9.5-22.2,15.5c-0.7,2-0.9,4.2-0.7,6.6
		c1.9,0.5,3.7,1.1,5.6,1.9c12.2,5.3,21,16.4,22.5,28.3c0.5,3.8-0.2,6.2-1.9,7.1c-2,1.1-5.1-0.1-9-3.4c-8-6.8-17.3-20.8-18.9-32.4
		c-7.7-1.6-15.2-0.2-21.2,4.2c-10.7,7.7-15.2,26.7-13.4,56.5c0.2,2.6,1.5,5.5,3.2,6.9c0.8,0.7,1.7,1,2.5,0.9
		c5.8-0.7,14.1-0.2,18.7,13.3c0.3,1,0.6,2.1,0.9,3.4c0.6,2.7,1.3,6,3.3,9c0.6,0.9,1.2,1.7,1.8,2.5c1.6-26.8,19.8-51.8,26.5-54.3
		c1.6-0.6,2.5,0.1,2.9,1c0.8,1.9-1.4,15.8-4.5,27.5c-3.1,11.9-8.3,26.9-15.3,30.7c-2.6,1.4-5.2,1.3-7.7-0.4c0.1,4.5,0.6,9,1.9,13.4
		c3.4,12.2-1.4,20.7-7.7,23.7C415.5,331.3,410.6,328.7,406.5,324.3z M459.8,416.5c6,4.1,11.2,7.2,14.3,8.9c7.4,4,22.1,7.8,36.8,6.5
		c4-0.4,7.4-2.6,10.7-6.4c-0.3-0.1-0.7-0.2-1-0.3c-5.3-1.9-10.3-5.1-15.1-8.2c-12.6-8.1-24.4-15.7-42.6-2.6
		C461.8,415.3,460.8,415.9,459.8,416.5z M418.3,343.8c-0.5,0.2-2.9,3.7-3.7,17.9c-0.3,4.8,1.3,9.9,4.1,15c0.2-2.1,0.4-4.1,0.6-5.8
		c0.3-2.8,0.5-5.1,0.7-6.6C421.3,349.7,419.2,344.1,418.3,343.8z M402.1,270c-0.8,0-1.6,0.4-2.5,1.1c-9.7,8.4-10.7,25.7-2.2,37.7
		c0.9,1.3,1.8,2.6,2.7,4c1.5,2.2,3,4.4,4.5,6.5c0.2-3.8,0.4-7.3,0.4-10.4c-1.1-1.3-2.2-2.7-3.1-4.1c-4.6-7-5.6-13.6-2.5-17.7
		c0.5-0.7,2.2-2.9,4.1-2.2c2.7,1,3.9,8.8,3.6,23.3c3.4,3.7,6.9,5.7,8.6,5.3c0.8-0.2,1.3-1,1.5-2.5c1.1-10.5-5.9-36.5-13.5-40.4
		C403.2,270.2,402.7,270,402.1,270z M402.9,286.8c-0.2,0-0.8,0.3-1.7,1.5c-2.5,3.4-1.6,9.1,2.6,15.4c0.5,0.7,1,1.5,1.5,2.1
		C405.3,293.5,404.3,287.3,402.9,286.8C402.9,286.8,402.9,286.8,402.9,286.8z M427.1,288.9c2.1,1.8,4.2,2.3,6.3,1.4
		c5-2.2,10.2-12.4,14.6-28.7c3.6-13.6,5.2-25.9,4.8-27.2c-0.3,0-1.7,0.4-4.5,3.4C440.8,245.4,427.8,266.6,427.1,288.9z M502.1,221.4
		c-12.7,0-23,2.1-26.7,5.9c-1.3,1.4-1.6,2.9-0.8,4.7c3.9,8.3,21,13.3,47,13.6c15,0.2,31.2-1.3,43.7-3.8c-4.6-5.4-11.4-9.2-17.5-11.8
		C534,224.1,516.6,221.4,502.1,221.4z M431.6,190.8c1.9,10.8,10.7,24.1,18.1,30.4c3.6,3.1,5.8,3.6,6.8,3.1c0.9-0.5,1.2-2.4,0.9-5.1
		c-1.3-11-9.9-21.7-21.3-26.7C434.6,191.7,433.1,191.2,431.6,190.8z"/>
</g>
</svg>
